<?xml version="1.0" encoding="UTF-8"?>
<svg id="Layer_2" data-name="Layer 2" xmlns="http://www.w3.org/2000/svg" viewBox="0 0 404.7 674.5">
  <defs>
    <style>
      .cls-1 {
        fill: #00f59b;
      }
    </style>
  </defs>
  <g id="Logo_1" data-name="Logo 1">
    <g>
      <circle class="cls-1" cx="67.45" cy="607.05" r="67.45" transform="translate(-409.49 225.5) rotate(-45)"/>
      <path class="cls-1" d="M115.14,289.56c-12.2-12.21-29.06-19.76-47.69-19.76C30.2,269.8,0,300,0,337.25c0,18.63,7.55,35.49,19.76,47.69l269.8,269.8c12.2,12.21,29.06,19.76,47.69,19.76,37.25,0,67.45-30.2,67.45-67.45,0-18.63-7.55-35.49-19.76-47.69L115.14,289.56Z"/>
      <path class="cls-1" d="M289.56,384.94c12.2,12.21,29.06,19.76,47.69,19.76,37.25,0,67.45-30.2,67.45-67.45,0-18.63-7.55-35.49-19.76-47.69L115.14,19.76C102.94,7.55,86.08,0,67.45,0,30.2,0,0,30.2,0,67.45c0,18.63,7.55,35.49,19.76,47.69L289.56,384.94Z"/>
    </g>
  </g>
</svg>